<svg id="Calque_2" data-name="Calque 2" xmlns="http://www.w3.org/2000/svg" viewBox="0 0 879.12 656.33"><defs><style>.cls-1{fill:#4fffd9;}</style></defs><polygon class="cls-1" points="15.48 612.23 398.84 612.23 398.84 383.81 240.7 383.81 15.48 612.23"/><rect class="cls-1" x="15.48" y="612.23" width="383.36" height="44.1"/><polygon class="cls-1" points="248.69 396.11 388.23 396.11 380.13 589.66 68.64 589.66 248.69 396.11"/><polyline class="cls-1" points="15.48 612.23 15.48 498.02 240.65 342.96 240.7 383.81 15.48 612.23"/><polygon class="cls-1" points="248.69 477.08 384.84 477.08 380.13 589.66 171 589.66 248.69 477.08"/><polygon class="cls-1" points="147.07 448.82 207.16 448.82 197.12 458.86 135.07 458.86 147.07 448.82"/><polygon class="cls-1" points="207.16 448.82 207.16 463.45 197.75 472.86 197.75 458.86 207.16 448.82"/><rect class="cls-1" x="135.07" y="458.86" width="62.68" height="14"/><polygon class="cls-1" points="103.51 473.7 159.87 429.24 159.87 448.82 147.07 448.82 135.07 458.86 135.07 472.86 103.51 502.77 103.51 473.7"/></svg>