<svg id="Calque_2" data-name="Calque 2" xmlns="http://www.w3.org/2000/svg" viewBox="0 0 879.12 849.78"><defs><style>.cls-1{fill:#4fffd9;}</style></defs><polygon class="cls-1" points="292 150.78 622.14 150.78 622.14 461.04 398.84 461.04 398.84 383.81 292 383.81 292 150.78"/><polygon class="cls-1" points="292 150.78 292 160.55 377.04 160.55 622.14 160.55 622.14 150.78 292 150.78"/><line class="cls-1" x1="377.04" y1="383.81" x2="377.04" y2="160.55"/><rect class="cls-1" x="398.84" y="436.6" width="223.3" height="24.44"/><rect class="cls-1" x="317.85" y="114.85" width="255.57" height="35.93"/><polyline class="cls-1" points="573.42 160.55 573.42 396.11 398.84 396.11 398.84 383.81 317.85 383.81 317.85 160.55"/><line class="cls-1" x1="573.42" y1="396.11" x2="622.14" y2="436.6"/><polygon class="cls-1" points="573.42 114.85 573.42 150.78 622.14 150.78 622.14 81.73 573.42 114.85"/><polyline class="cls-1" points="317.85 114.85 292 78.8 292 150.78 317.85 150.78"/><rect class="cls-1" x="258.04" y="78.8" width="33.96" height="305.01"/><polygon class="cls-1" points="658.36 81.73 622.14 81.73 622.14 461.04 628.73 461.04 628.73 366.2 658.36 366.2 658.36 81.73"/><polygon class="cls-1" points="425.61 160.55 427.59 168.37 464.39 168.37 467.9 160.55 425.61 160.55"/><rect class="cls-1" x="443.3" y="168.37" width="4.68" height="100.26"/><rect class="cls-1" x="428.07" y="268.63" width="37.38" height="9.7"/><path class="cls-1" d="M450,168.37s8.85,34.75,10.43,45.1c2.33,15.2,10.91,87.91,0,88.29C450,302.12,450,278.33,450,278.33"/></svg>