<svg id="Calque_2" data-name="Calque 2" xmlns="http://www.w3.org/2000/svg" viewBox="0 0 879.12 849.78"><defs><style>.cls-1{fill:#4fffd9;}</style></defs><rect class="cls-1" x="734.56" y="429.34" width="139.53" height="134.62"/><polygon class="cls-1" points="734.56 563.96 628.73 461.04 628.73 366.2 734.56 429.34 734.56 563.96"/><polygon class="cls-1" points="628.73 366.2 734.56 366.2 874.09 429.34 734.56 429.34 628.73 366.2"/><polygon class="cls-1" points="667.18 377.7 735.91 377.7 826.52 418.7 735.91 418.7 667.18 377.7"/><polygon class="cls-1" points="874.09 429.34 874.09 340.1 734.56 314.27 734.56 366.2 874.09 429.34"/><line class="cls-1" x1="628.73" y1="416.36" x2="734.56" y2="496.65"/><polygon class="cls-1" points="734.56 136.65 845.16 107.32 845.16 334.74 734.56 314.27 734.56 136.65"/><polyline class="cls-1" points="845.16 107.32 853.2 107.32 853.2 334.74 845.16 334.74"/><polygon class="cls-1" points="735.91 377.7 735.91 390.01 687.81 390.01 667.18 377.7 735.91 377.7"/><polygon class="cls-1" points="735.91 390.01 794.62 418.7 826.52 418.7 735.91 377.7 735.91 390.01"/><polygon class="cls-1" points="804.33 366.2 788.78 361.01 751.41 363.87 764.96 369.34 804.33 366.2"/><polygon class="cls-1" points="804.33 366.2 804.33 377.47 764.86 379.92 764.96 369.34 804.33 366.2"/><polygon class="cls-1" points="751.41 363.87 764.96 369.34 764.86 379.92 751.41 373.83 751.41 363.87"/></svg>