
<svg xmlns="http://www.w3.org/2000/svg" viewBox="0 0 879.12 849.78">
<defs>
<style>
.cls-1,
.cls-2{fill:none;stroke:#4fffd9;stroke-dasharray: 1000; animation: dash 3s linear;
}
.cls-1{stroke-linejoin:bevel;}
.cls-2{stroke-miterlimit:10;}
@keyframes dash {
  from {
        stroke-dashoffset: 1000;
  }
  to {
    stroke-dashoffset: 0;
  }
}
</style>
</defs><g id="Calque_2" data-name="Calque 2"><polyline class="cls-1" points="152.9 472.86 15.48 612.23 398.84 612.23 398.84 383.81 240.7 383.81 176.6 448.82"/>
<rect class="cls-1" x="15.48" y="612.23" width="383.36" height="44.1"/><polyline class="cls-1" points="199.67 448.82 248.69 396.11 388.23 396.11 380.13 589.66 68.64 589.66 177.31 472.86"/>
<line class="cls-1" x1="152.9" y1="472.85" x2="15.48" y2="612.23"/><polyline class="cls-1" points="15.48 612.23 15.48 498.02 240.65 342.96 240.7 383.81 176.6 448.82"/>
<polygon class="cls-1" points="248.69 477.08 384.84 477.08 380.13 589.66 171 589.66 248.69 477.08"/><polygon class="cls-1" points="292 150.78 622.14 150.78 622.14 461.04 398.84 461.04 398.84 383.81 292 383.81 292 150.78"/>
<polygon class="cls-1" points="292 150.78 292 160.55 377.04 160.55 622.14 160.55 622.14 150.78 292 150.78"/><line class="cls-1" x1="377.04" y1="383.81" x2="377.04" y2="160.55"/>
<line class="cls-1" x1="538.63" y1="160.55" x2="538.63" y2="436.6"/><rect class="cls-1" x="398.84" y="436.6" width="223.3" height="24.44"/><rect class="cls-1" x="317.85" y="114.85" width="255.57" height="35.93"/>
<polyline class="cls-1" points="573.42 160.55 573.42 396.11 398.84 396.11 398.84 383.81 317.85 383.81 317.85 160.55"/><line class="cls-1" x1="573.42" y1="396.11" x2="622.14" y2="436.6"/><line class="cls-1" x1="794.88" y1="563.66" x2="879.12" y2="633.66"/>
<polygon class="cls-1" points="573.42 114.85 573.42 150.78 622.14 150.78 622.14 81.73 573.42 114.85"/><polyline class="cls-1" points="317.85 114.85 292 78.8 292 150.78 317.85 150.78"/><line class="cls-1" x1="248.69" y1="396.11" x2="248.69" y2="477.08"/>
<rect class="cls-1" x="258.04" y="78.8" width="33.96" height="305.01"/><polygon class="cls-1" points="658.36 81.73 622.14 81.73 622.14 461.04 628.73 461.04 628.73 366.2 658.36 366.2 658.36 81.73"/><line class="cls-1" x1="810.76" x2="658.36" y2="81.73"/>
<line class="cls-1" x1="258.04" y1="78.8" x2="183.07"/><rect class="cls-1" x="734.56" y="429.34" width="139.53" height="134.62"/><polygon class="cls-1" points="734.56 563.96 628.73 461.04 628.73 366.2 734.56 429.34 734.56 563.96"/>
<polygon class="cls-1" points="628.73 366.2 734.56 366.2 874.09 429.34 734.56 429.34 628.73 366.2"/><polygon class="cls-1" points="667.18 377.7 735.91 377.7 826.52 418.7 735.91 418.7 667.18 377.7"/>
<polygon class="cls-1" points="874.09 429.34 874.09 340.1 734.56 314.27 734.56 366.2 874.09 429.34"/><line class="cls-1" x1="628.73" y1="416.36" x2="734.56" y2="496.65"/><polygon class="cls-1" points="734.56 136.65 845.16 107.32 845.16 334.74 734.56 314.27 734.56 136.65"/>
<polyline class="cls-1" points="845.16 107.32 853.2 107.32 853.2 334.74 845.16 334.74"/><polygon class="cls-1" points="735.91 377.7 735.91 390.01 687.81 390.01 667.18 377.7 735.91 377.7"/><polygon class="cls-1" points="735.91 390.01 794.62 418.7 826.52 418.7 735.91 377.7 735.91 390.01"/>
<polygon class="cls-1" points="147.07 448.82 176.6 448.82 187.93 448.82 199.67 448.82 207.16 448.82 197.12 458.86 135.07 458.86 147.07 448.82"/><polygon class="cls-1" points="207.16 448.82 207.16 463.45 197.75 472.86 197.75 458.86 207.16 448.82"/>
<rect class="cls-1" x="135.07" y="458.86" width="62.68" height="14"/><polygon class="cls-1" points="103.51 473.7 159.87 429.24 159.87 448.82 147.07 448.82 135.07 458.86 135.07 472.86 103.51 502.77 103.51 473.7"/>
<polygon class="cls-1" points="804.33 366.2 788.78 361.01 751.41 363.87 764.96 369.34 804.33 366.2"/><polygon class="cls-1" points="804.33 366.2 804.33 377.47 764.86 379.92 764.96 369.34 804.33 366.2"/>
<polygon class="cls-1" points="751.41 363.87 764.96 369.34 764.86 379.92 751.41 373.83 751.41 363.87"/><polygon class="cls-1" points="425.61 160.55 427.59 168.37 464.39 168.37 467.9 160.55 425.61 160.55"/><rect class="cls-1" x="443.3" y="168.37" width="4.68" height="100.26"/>
<rect class="cls-1" x="428.07" y="268.63" width="37.38" height="9.7"/><path class="cls-1" d="M450,168.37s8.85,34.75,10.43,45.1c2.33,15.2,10.91,87.91,0,88.29C450,302.12,450,278.33,450,278.33"/></g><g id="Calque_1" data-name="Calque 1"><polygon class="cls-2" points="0 342.96 258.04 271.39 258.04 101.96 147.6 0 0 0 0 342.96"/>
<rect class="cls-1" x="15.48" y="656.33" width="383.36" height="152.82"/></g></svg>